<?xml version="1.0" standalone="no"?>
<!DOCTYPE svg PUBLIC "-//W3C//DTD SVG 20010904//EN"
 "http://www.w3.org/TR/2001/REC-SVG-20010904/DTD/svg10.dtd">
<svg version="1.0" xmlns="http://www.w3.org/2000/svg"
 width="512.000000pt" height="512.000000pt" viewBox="0 0 512.000000 512.000000"
 preserveAspectRatio="xMidYMid meet">

<g transform="translate(0.000000,512.000000) scale(0.100000,-0.100000)"
fill="#000000" stroke="none">
<path d="M2406 5110 c-221 -35 -430 -139 -590 -294 -125 -122 -212 -259 -271
-430 l-31 -91 -375 -3 -374 -2 -258 -775 -259 -775 4 -178 c3 -169 4 -179 30
-227 34 -65 111 -137 171 -160 l47 -18 0 -587 0 -587 -47 -18 c-31 -12 -69
-40 -109 -80 -46 -47 -72 -65 -108 -75 -60 -17 -141 -77 -178 -132 -52 -77
-58 -117 -58 -410 l0 -268 2560 0 2560 0 0 268 c0 293 -6 333 -58 410 -37 55
-118 115 -178 132 -36 10 -62 28 -108 75 -40 40 -78 68 -108 80 l-48 18 0 587
0 587 47 18 c60 23 137 95 171 160 26 48 27 58 30 227 l4 178 -259 775 -258
775 -374 2 -375 3 -31 91 c-122 351 -395 606 -750 699 -112 29 -313 41 -419
25z m424 -199 c412 -134 678 -536 631 -953 -28 -252 -152 -477 -341 -623 l-60
-46 0 260 0 260 48 21 c60 26 126 90 160 155 27 50 27 51 30 303 l3 252 -80 0
-81 0 0 -207 c0 -115 -5 -225 -11 -246 -5 -21 -23 -52 -39 -70 l-29 -32 -1
278 0 277 -85 0 -85 0 0 -277 0 -276 -26 24 c-52 48 -54 61 -54 304 l0 225
-86 0 -86 0 4 -243 3 -242 33 -67 c37 -76 83 -120 159 -155 l53 -24 0 -304 0
-304 -66 -20 c-175 -55 -353 -55 -528 0 l-66 20 0 303 0 303 64 32 c74 36 119
82 154 160 77 168 -29 486 -197 593 -51 32 -128 38 -185 14 -75 -31 -167 -157
-213 -289 -23 -69 -28 -98 -28 -182 0 -89 3 -105 27 -150 34 -65 100 -129 161
-155 l47 -21 0 -260 0 -260 -60 46 c-141 108 -247 264 -304 443 -70 222 -51
462 51 667 107 213 293 378 516 457 115 41 164 47 327 44 130 -3 155 -7 240
-35z m-648 -471 c54 -42 128 -221 128 -309 0 -105 -97 -183 -197 -161 -52 12
-85 39 -112 95 -25 48 -25 49 -9 126 20 96 70 200 115 239 40 35 43 36 75 10z
m-1246 -2261 c41 -20 64 -24 139 -24 97 0 139 15 215 75 l35 28 36 -33 c108
-98 301 -98 416 0 l40 34 22 -23 c42 -45 130 -81 208 -84 88 -5 149 14 219 67
l51 38 35 -32 c106 -98 310 -98 416 0 l35 32 51 -38 c70 -53 131 -72 219 -67
78 3 166 39 208 84 l22 23 40 -34 c115 -98 308 -98 416 0 l36 33 35 -28 c76
-60 118 -75 215 -75 79 0 97 3 147 29 32 16 67 39 79 52 l22 23 40 -34 c22
-19 60 -42 84 -51 l43 -17 0 -564 c0 -534 -1 -565 -17 -558 -120 50 -240 43
-330 -17 -27 -18 -56 -27 -99 -31 -89 -7 -167 -50 -225 -124 -23 -28 -44 -42
-89 -55 -77 -24 -137 -71 -178 -138 -48 -80 -52 -106 -52 -312 l0 -188 -85 0
-85 0 0 905 0 905 -740 0 -740 0 0 -905 0 -905 -85 0 -85 0 0 188 c0 206 -4
232 -52 312 -41 67 -101 114 -178 138 -45 13 -66 27 -89 55 -58 74 -136 117
-225 124 -43 4 -72 13 -99 31 -90 60 -210 67 -329 17 -17 -7 -18 24 -18 558
l0 564 44 17 c24 9 61 32 82 50 l39 34 31 -28 c17 -15 53 -38 80 -51z m2202
-1186 l2 -823 -580 0 -580 0 0 818 c0 450 3 822 7 825 3 4 263 6 577 5 l571
-3 3 -822z m-2240 -107 c15 -8 40 -28 56 -44 27 -30 31 -30 95 -25 99 8 156
-28 182 -117 l12 -38 68 -4 c49 -3 76 -9 96 -24 38 -28 73 -82 73 -110 l0 -24
-655 0 -655 0 0 24 c0 28 35 82 73 110 20 15 47 21 97 24 39 2 70 9 70 15 0
30 49 102 84 125 35 22 47 24 107 19 62 -5 68 -4 90 20 57 61 144 82 207 49z
m3470 0 c15 -8 40 -28 56 -44 27 -30 31 -30 95 -25 60 5 72 3 107 -19 35 -23
84 -95 84 -125 0 -6 31 -12 69 -15 56 -3 75 -9 105 -31 39 -30 66 -74 66 -107
0 -20 -1 -20 -655 -20 l-655 0 0 24 c0 28 35 82 73 110 20 15 47 21 96 24 l68
4 12 38 c26 89 83 125 182 117 62 -5 68 -4 90 20 57 61 144 82 207 49z m-2888
-636 l0 -80 -655 0 -655 0 0 80 0 80 655 0 655 0 0 -80z m3470 0 l0 -80 -655
0 -655 0 0 80 0 80 655 0 655 0 0 -80z"/>
<path d="M910 1570 l0 -330 330 0 330 0 0 330 0 330 -330 0 -330 0 0 -330z
m490 0 l0 -160 -160 0 -160 0 0 160 0 160 160 0 160 0 0 -160z"/>
<path d="M3550 1570 l0 -330 330 0 330 0 0 330 0 330 -330 0 -330 0 0 -330z
m490 0 l0 -160 -160 0 -160 0 0 160 0 160 160 0 160 0 0 -160z"/>
<path d="M2150 990 l0 -80 80 0 80 0 0 80 0 80 -80 0 -80 0 0 -80z"/>
</g>
</svg>
